<?xml version="1.0" encoding="utf-8"?>
<!-- Generator: Adobe Illustrator 18.1.1, SVG Export Plug-In . SVG Version: 6.00 Build 0)  -->
<svg version="1.1" id="Layer_1" xmlns="http://www.w3.org/2000/svg" xmlns:xlink="http://www.w3.org/1999/xlink" x="0px" y="0px"
	 viewBox="0 0 331.9 331.8" enable-background="new 0 0 331.9 331.8" xml:space="preserve">
<g>
	<path d="M0,0c110.6,0,221.2,0,331.9,0c0,110.5,0,221,0,331.8c-110.5,0-221.2,0-331.9,0C0,221.3,0,110.7,0,0z M12,319.9
		c103,0,205.4,0,307.9,0c0-102.9,0-205.4,0-307.9C217,12,114.6,12,12,12C12,114.7,12,217.1,12,319.9z"/>
	<path d="M76,44.6c19.1,0,37.2,0,56.1,0c-11.4,64.6-22.6,128.7-34.1,193.7c31.9,0,62.9,0,95,0c-3,16.8-5.8,32.7-8.6,48.9
		c-50.5,0-100.3,0-150.9,0C47.7,206.1,61.9,125.4,76,44.6z"/>
	<path d="M215.8,284.3c-7.3-15.8-14.1-30.5-21.4-46.2c4.2,0,7.4,0.2,10.7-0.1c4.3-0.4,8.6-0.9,12.8-1.8c2.4-0.5,4.7-1.8,6.7-3.2
		c8.2-5.8,8.5-16.7,0.1-22.2c-4.6-3.1-10.1-4.9-15.4-7c-8.7-3.4-17.7-5.9-26.1-10c-26.2-12.9-34.3-40.7-19.7-66.1
		c7-12.2,17.5-20.4,30.3-25.7c27.2-11.3,54.5-11.2,81.6,0.3c7.6,3.2,14.3,7.8,20.1,13.8c1.1,1.2,2.1,2.5,3.6,4.2
		c-11.3,9.7-22.4,19.1-33.8,28.8c-1.2-1.1-2.1-1.9-3-2.8c-11.9-12-26.3-14.9-42.3-11.4c-4,0.9-7.5,2.7-10.2,5.9
		c-4.9,5.7-4.2,13.9,2.1,17.8c3.9,2.4,8.4,4,12.7,5.6c7.1,2.5,14.3,4.4,21.3,7.1c4.8,1.8,9.5,4.2,13.8,6.9
		c17.5,10.7,23.8,26.8,21.4,46.5c-3.3,26.9-18.7,44.6-43.7,53.9C230.7,281,223.4,282.3,215.8,284.3z"/>
</g>
</svg>
